<svg width="214" height="74" viewBox="0 0 214 74" fill="none" xmlns="http://www.w3.org/2000/svg">
<path d="M37.5687 13.976C37.5687 12.584 37.4247 11.528 37.1367 10.808C36.8967 10.088 36.3447 9.584 35.4807 9.296C34.6167 9.008 33.3207 8.864 31.5927 8.864C31.4487 8.864 31.3767 8.72 31.3767 8.432C31.3767 8.144 31.4487 8 31.5927 8C32.8407 8 34.2567 8.048 35.8407 8.144C37.4727 8.192 39.3927 8.216 41.6007 8.216C43.3287 8.216 45.0327 8.192 46.7127 8.144C48.4407 8.048 49.9287 8 51.1767 8C51.3207 8 51.3927 8.144 51.3927 8.432C51.3927 8.72 51.3207 8.864 51.1767 8.864C49.5927 8.864 48.3927 9.008 47.5767 9.296C46.7607 9.536 46.2087 10.016 45.9207 10.736C45.6807 11.408 45.5607 12.44 45.5607 13.832V47.168C45.5607 48.56 45.6807 49.616 45.9207 50.336C46.2087 51.056 46.7607 51.536 47.5767 51.776C48.3927 52.016 49.5927 52.136 51.1767 52.136C51.3207 52.136 51.3927 52.28 51.3927 52.568C51.3927 52.856 51.3207 53 51.1767 53C49.9287 53 48.4407 52.976 46.7127 52.928C45.0327 52.88 43.3287 52.856 41.6007 52.856C39.3927 52.856 37.4727 52.88 35.8407 52.928C34.2567 52.976 32.8407 53 31.5927 53C31.4487 53 31.3767 52.856 31.3767 52.568C31.3767 52.28 31.4487 52.136 31.5927 52.136C33.3207 52.136 34.6167 52.016 35.4807 51.776C36.3447 51.536 36.8967 51.056 37.1367 50.336C37.4247 49.616 37.5687 48.56 37.5687 47.168V13.976ZM10.0647 30.608V28.592H41.2407V30.608H10.0647ZM6.32066 47.168V13.832C6.32066 12.44 6.17666 11.408 5.88866 10.736C5.64866 10.016 5.12066 9.536 4.30466 9.296C3.53666 9.008 2.36066 8.864 0.776656 8.864C0.632656 8.864 0.560656 8.72 0.560656 8.432C0.560656 8.144 0.632656 8 0.776656 8C2.02466 8 3.44066 8.048 5.02466 8.144C6.60866 8.192 8.26466 8.216 9.99266 8.216C12.2007 8.216 14.1207 8.192 15.7527 8.144C17.4327 8.048 18.9447 8 20.2887 8C20.3847 8 20.4327 8.144 20.4327 8.432C20.4327 8.72 20.3847 8.864 20.2887 8.864C18.6087 8.864 17.3367 9.008 16.4727 9.296C15.6087 9.584 15.0327 10.088 14.7447 10.808C14.4567 11.528 14.3127 12.584 14.3127 13.976V47.168C14.3127 48.56 14.4567 49.616 14.7447 50.336C15.0327 51.056 15.6087 51.536 16.4727 51.776C17.3367 52.016 18.6087 52.136 20.2887 52.136C20.3847 52.136 20.4327 52.28 20.4327 52.568C20.4327 52.856 20.3847 53 20.2887 53C18.8967 53 17.3847 52.976 15.7527 52.928C14.1207 52.88 12.2007 52.856 9.99266 52.856C8.26466 52.856 6.58466 52.88 4.95266 52.928C3.32066 52.976 1.88066 53 0.632656 53C0.536656 53 0.488656 52.856 0.488656 52.568C0.488656 52.28 0.536656 52.136 0.632656 52.136C2.26466 52.136 3.46466 52.016 4.23266 51.776C5.04866 51.536 5.60066 51.056 5.88866 50.336C6.17666 49.616 6.32066 48.56 6.32066 47.168ZM61.953 28.664C61.953 29.672 62.217 30.584 62.745 31.4C63.321 32.168 64.041 32.888 64.905 33.56C65.769 34.184 66.705 34.808 67.713 35.432C68.913 36.104 70.089 36.824 71.241 37.592C72.393 38.312 73.353 39.2 74.121 40.256C74.889 41.312 75.273 42.68 75.273 44.36C75.273 45.896 74.865 47.408 74.049 48.896C73.281 50.336 72.105 51.512 70.521 52.424C68.937 53.336 66.945 53.792 64.545 53.792C63.345 53.792 62.145 53.648 60.945 53.36C59.745 53.12 58.449 52.616 57.057 51.848C56.961 51.752 56.865 51.632 56.769 51.488C56.673 51.344 56.625 51.176 56.625 50.984L56.481 43.856C56.481 43.712 56.601 43.64 56.841 43.64C57.129 43.592 57.297 43.616 57.345 43.712C57.873 45.248 58.617 46.688 59.577 48.032C60.537 49.328 61.617 50.384 62.817 51.2C64.065 51.968 65.313 52.352 66.561 52.352C67.521 52.352 68.313 52.064 68.937 51.488C69.561 50.864 69.873 49.928 69.873 48.68C69.873 47.336 69.561 46.232 68.937 45.368C68.361 44.456 67.617 43.688 66.705 43.064C65.793 42.392 64.857 41.792 63.897 41.264C62.793 40.64 61.689 39.992 60.585 39.32C59.481 38.648 58.569 37.808 57.849 36.8C57.129 35.744 56.769 34.376 56.769 32.696C56.769 30.68 57.273 29.072 58.281 27.872C59.289 26.672 60.585 25.808 62.169 25.28C63.801 24.752 65.481 24.488 67.209 24.488C68.265 24.488 69.225 24.56 70.089 24.704C71.001 24.848 72.033 25.136 73.185 25.568C73.617 25.712 73.833 25.976 73.833 26.36C73.833 27.32 73.809 28.328 73.761 29.384C73.713 30.392 73.689 31.52 73.689 32.768C73.689 32.912 73.545 32.984 73.257 32.984C72.969 32.984 72.825 32.912 72.825 32.768C72.825 31.856 72.441 30.872 71.673 29.816C70.953 28.76 69.993 27.848 68.793 27.08C67.593 26.264 66.297 25.856 64.905 25.856C64.233 25.856 63.561 26.024 62.889 26.36C62.265 26.696 61.953 27.464 61.953 28.664ZM80.5228 53C80.3788 53 80.3068 52.856 80.3068 52.568C80.3068 52.28 80.3788 52.136 80.5228 52.136C82.0108 52.136 83.0188 51.8 83.5468 51.128C84.0748 50.408 84.3388 49.088 84.3388 47.168V34.28C84.3388 32.696 84.1708 31.544 83.8348 30.824C83.5468 30.056 82.9948 29.672 82.1788 29.672C81.8428 29.672 81.4348 29.744 80.9548 29.888C80.5228 30.032 80.0428 30.224 79.5148 30.464C79.3228 30.512 79.1548 30.392 79.0108 30.104C78.9148 29.816 78.9388 29.648 79.0828 29.6L89.9548 24.56C90.0508 24.512 90.1228 24.488 90.1708 24.488C90.4108 24.488 90.6508 24.608 90.8908 24.848C91.1308 25.088 91.2508 25.304 91.2508 25.496C91.2508 26.072 91.2268 27.032 91.1788 28.376C91.1308 29.72 91.1068 31.64 91.1068 34.136V47.168C91.1068 49.088 91.3708 50.408 91.8988 51.128C92.4748 51.8 93.5068 52.136 94.9948 52.136C95.1388 52.136 95.2108 52.28 95.2108 52.568C95.2108 52.856 95.1388 53 94.9948 53C94.0348 53 92.9308 52.976 91.6828 52.928C90.4348 52.88 89.1148 52.856 87.7228 52.856C86.3788 52.856 85.0828 52.88 83.8348 52.928C82.5868 52.976 81.4828 53 80.5228 53ZM87.4348 17.36C86.0908 17.36 85.0108 16.976 84.1948 16.208C83.4268 15.44 83.0428 14.36 83.0428 12.968C83.0428 11.72 83.4268 10.736 84.1948 10.016C85.0108 9.248 86.0908 8.864 87.4348 8.864C88.7788 8.864 89.8108 9.248 90.5308 10.016C91.2508 10.736 91.6108 11.72 91.6108 12.968C91.6108 15.896 90.2188 17.36 87.4348 17.36ZM119.597 53.432C119.405 53.528 119.165 53.576 118.877 53.576C118.013 53.576 117.149 53 116.285 51.848C115.421 50.696 114.989 49.04 114.989 46.88V34.64C114.989 32.768 114.869 31.208 114.629 29.96C114.389 28.712 114.005 27.776 113.477 27.152C112.949 26.528 112.229 26.216 111.317 26.216C110.597 26.216 109.949 26.408 109.373 26.792C108.797 27.128 108.341 27.704 108.005 28.52C107.669 29.288 107.453 30.368 107.357 31.76C107.213 33.152 106.781 34.184 106.061 34.856C105.341 35.48 104.357 35.792 103.109 35.792C101.909 35.792 101.045 35.528 100.517 35C99.9889 34.472 99.7249 33.752 99.7249 32.84C99.7249 31.784 100.229 30.776 101.237 29.816C102.245 28.808 103.493 27.92 104.981 27.152C106.517 26.336 108.101 25.712 109.733 25.28C111.365 24.8 112.829 24.56 114.125 24.56C116.237 24.56 118.037 25.208 119.525 26.504C121.013 27.752 121.757 29.744 121.757 32.48V45.224C121.757 46.616 121.997 47.696 122.477 48.464C123.005 49.232 123.725 49.616 124.637 49.616C125.309 49.616 126.005 49.448 126.725 49.112C126.917 49.016 127.061 49.112 127.157 49.4C127.301 49.64 127.253 49.808 127.013 49.904L119.597 53.432ZM104.477 53.504C102.989 53.504 101.789 53.12 100.877 52.352C99.9649 51.536 99.5089 50.384 99.5089 48.896C99.5089 47.168 100.157 45.944 101.453 45.224C102.797 44.456 104.861 43.616 107.645 42.704L115.709 40.112L115.997 41.192L111.029 42.992C109.733 43.472 108.797 44 108.221 44.576C107.693 45.152 107.429 45.848 107.429 46.664C107.429 47.672 107.717 48.464 108.293 49.04C108.869 49.616 109.589 49.904 110.453 49.904C110.837 49.904 111.341 49.832 111.965 49.688C112.637 49.496 113.357 49.232 114.125 48.896L118.085 46.736L118.157 47.96L111.965 51.344C110.765 51.968 109.493 52.496 108.149 52.928C106.805 53.312 105.581 53.504 104.477 53.504ZM149.11 53C148.966 53 148.894 52.856 148.894 52.568C148.894 52.28 148.966 52.136 149.11 52.136C150.598 52.136 151.606 51.8 152.134 51.128C152.662 50.408 152.926 49.088 152.926 47.168V36.8C152.926 34.208 152.446 32.288 151.486 31.04C150.574 29.792 149.11 29.168 147.094 29.168C145.654 29.168 144.166 29.528 142.63 30.248C141.142 30.968 139.942 31.952 139.03 33.2L138.67 32.336C140.35 29.936 142.246 28.016 144.358 26.576C146.47 25.088 148.774 24.344 151.27 24.344C153.958 24.344 156.022 25.184 157.462 26.864C158.95 28.544 159.694 30.704 159.694 33.344V47.168C159.694 49.088 159.958 50.408 160.486 51.128C161.062 51.8 162.094 52.136 163.582 52.136C163.726 52.136 163.798 52.28 163.798 52.568C163.798 52.856 163.726 53 163.582 53C162.622 53 161.518 52.976 160.27 52.928C159.022 52.88 157.702 52.856 156.31 52.856C154.966 52.856 153.67 52.88 152.422 52.928C151.174 52.976 150.07 53 149.11 53ZM129.742 53C129.598 53 129.526 52.856 129.526 52.568C129.526 52.28 129.598 52.136 129.742 52.136C131.23 52.136 132.238 51.8 132.766 51.128C133.294 50.408 133.558 49.088 133.558 47.168V33.632C133.558 32.144 133.39 31.064 133.054 30.392C132.718 29.672 132.142 29.312 131.326 29.312C130.894 29.312 130.39 29.408 129.814 29.6C129.238 29.744 128.59 29.984 127.87 30.32C127.678 30.416 127.534 30.32 127.438 30.032C127.342 29.744 127.342 29.576 127.438 29.528L137.446 24.632C137.734 24.536 137.902 24.488 137.95 24.488C138.478 24.488 139.006 25.064 139.534 26.216C140.062 27.368 140.326 29.024 140.326 31.184V47.168C140.326 49.088 140.59 50.408 141.118 51.128C141.694 51.8 142.726 52.136 144.214 52.136C144.358 52.136 144.43 52.28 144.43 52.568C144.43 52.856 144.358 53 144.214 53C143.254 53 142.15 52.976 140.902 52.928C139.654 52.88 138.334 52.856 136.942 52.856C135.598 52.856 134.302 52.88 133.054 52.928C131.806 52.976 130.702 53 129.742 53ZM177.936 73.304C174.432 73.304 171.528 72.536 169.224 71C166.968 69.512 165.84 67.52 165.84 65.024C165.84 64.016 166.056 62.912 166.488 61.712C166.968 60.56 167.856 59.264 169.152 57.824C170.496 56.384 172.464 54.824 175.056 53.144L175.776 53.936C175.296 54.416 174.84 54.968 174.408 55.592C173.976 56.264 173.616 57.056 173.328 57.968C173.088 58.928 172.968 60.128 172.968 61.568C172.968 64.688 173.808 67.04 175.488 68.624C177.168 70.208 179.256 71 181.752 71C183.432 71 184.896 70.664 186.144 69.992C187.392 69.368 188.376 68.432 189.096 67.184C189.816 65.984 190.176 64.568 190.176 62.936C190.176 61.496 189.84 60.32 189.168 59.408C188.544 58.544 187.68 57.848 186.576 57.32C185.52 56.84 184.32 56.456 182.976 56.168C181.632 55.88 180.264 55.64 178.872 55.448C177.192 55.16 175.56 54.824 173.976 54.44C172.44 54.104 171.192 53.528 170.232 52.712C169.272 51.896 168.792 50.696 168.792 49.112C168.792 47.864 169.344 46.496 170.448 45.008C171.6 43.52 173.52 42.176 176.208 40.976L176.856 41.408C175.944 41.888 175.272 42.416 174.84 42.992C174.456 43.568 174.264 44.264 174.264 45.08C174.264 46.184 174.672 47.048 175.488 47.672C176.352 48.248 177.48 48.68 178.872 48.968C180.264 49.256 181.728 49.544 183.264 49.832C184.8 50.072 186.312 50.36 187.8 50.696C189.336 51.032 190.728 51.488 191.976 52.064C193.272 52.64 194.304 53.456 195.072 54.512C195.84 55.568 196.224 56.936 196.224 58.616C196.224 60.584 195.744 62.432 194.784 64.16C193.824 65.936 192.504 67.496 190.824 68.84C189.144 70.232 187.2 71.312 184.992 72.08C182.784 72.896 180.432 73.304 177.936 73.304ZM179.376 42.56C176.928 42.56 174.84 42.128 173.112 41.264C171.432 40.4 170.136 39.296 169.224 37.952C168.36 36.56 167.928 35.144 167.928 33.704C167.928 31.688 168.576 30.008 169.872 28.664C171.216 27.32 172.848 26.336 174.768 25.712C176.688 25.04 178.536 24.704 180.312 24.704C182.568 24.704 184.56 25.112 186.288 25.928C188.016 26.696 189.36 27.752 190.32 29.096C191.328 30.392 191.832 31.88 191.832 33.56C191.832 35.432 191.184 37.04 189.888 38.384C188.64 39.728 187.056 40.76 185.136 41.48C183.264 42.2 181.344 42.56 179.376 42.56ZM181.32 41.264C182.136 41.264 182.904 40.832 183.624 39.968C184.392 39.056 184.776 37.496 184.776 35.288C184.776 32.648 184.08 30.464 182.688 28.736C181.344 26.96 179.76 26.072 177.936 26.072C176.88 26.072 176.112 26.576 175.632 27.584C175.152 28.544 174.912 29.936 174.912 31.76C174.912 33.344 175.176 34.856 175.704 36.296C176.232 37.736 176.976 38.936 177.936 39.896C178.896 40.808 180.024 41.264 181.32 41.264ZM186.648 30.464L186.792 28.16C188.328 26.96 189.816 26.048 191.256 25.424C192.744 24.8 194.376 24.488 196.152 24.488C196.392 24.488 196.536 24.68 196.584 25.064C196.68 25.448 196.728 25.928 196.728 26.504C196.728 27.176 196.632 27.92 196.44 28.736C196.248 29.552 196.08 29.888 195.936 29.744C195.024 29.36 194.112 29.072 193.2 28.88C192.288 28.64 191.4 28.52 190.536 28.52C190.008 28.52 189.456 28.568 188.88 28.664C188.304 28.712 187.704 28.856 187.08 29.096L186.648 30.464ZM198.756 23.552C199.236 21.488 199.836 19.784 200.556 18.44C201.324 17.096 202.092 15.968 202.86 15.056C203.676 14.144 204.42 13.304 205.092 12.536C205.764 11.768 206.316 10.928 206.748 10.016C207.18 9.104 207.396 7.976 207.396 6.632C207.396 5.048 207.108 3.968 206.532 3.392C206.004 2.768 205.308 2.456 204.444 2.456C203.388 2.456 202.452 2.816 201.636 3.536C200.868 4.208 200.316 5.072 199.98 6.128C199.932 6.272 199.764 6.32 199.476 6.272C199.236 6.224 199.14 6.104 199.188 5.912C199.668 4.424 200.436 3.152 201.492 2.096C202.548 0.991999 204.204 0.439999 206.46 0.439999C208.668 0.439999 210.276 0.967999 211.284 2.024C212.292 3.032 212.796 4.28 212.796 5.768C212.796 7.4 212.316 8.768 211.356 9.872C210.444 10.976 209.316 12.008 207.972 12.968C206.676 13.88 205.428 14.84 204.228 15.848C203.076 16.808 202.284 17.96 201.852 19.304C201.804 19.496 201.852 19.592 201.996 19.592C204.156 19.592 205.908 19.568 207.252 19.52C208.644 19.424 209.724 19.28 210.492 19.088C211.308 18.848 211.86 18.536 212.148 18.152C212.484 17.768 212.652 17.288 212.652 16.712C212.652 16.616 212.796 16.568 213.084 16.568C213.372 16.568 213.516 16.616 213.516 16.712L213.372 23.624C213.372 23.816 213.276 23.912 213.084 23.912C211.116 23.912 208.836 23.912 206.244 23.912C203.652 23.912 201.228 23.912 198.972 23.912C198.732 23.912 198.66 23.792 198.756 23.552Z" fill="#5D718E"/>
</svg>
